<?xml version="1.0" encoding="utf-8"?>
<!-- Generator: Adobe Illustrator 25.4.1, SVG Export Plug-In . SVG Version: 6.00 Build 0)  -->
<svg version="1.1" id="Capa_1" xmlns="http://www.w3.org/2000/svg" xmlns:xlink="http://www.w3.org/1999/xlink" x="0px" y="0px"
	 viewBox="0 0 556 130" style="enable-background:new 0 0 556 130;" xml:space="preserve">
	<rect width="100%" height="100%" fill="white" />
<style type="text/css">
	.st0{fill:#EF3340;}
	.st1{fill:#0C2340;}
</style>
<g>
	<path class="st0" d="M77.4,14.4c3,0,5.5,2.5,5.5,5.5v0c0,3-2.5,5.5-5.5,5.5c-3,0-5.5-2.5-5.5-5.5v0C71.9,16.9,74.4,14.4,77.4,14.4
		 M77.4,6.3c-7.5,0-13.6,6.1-13.6,13.6c0,7.5,6.1,13.6,13.6,13.6S91,27.5,91,20S84.9,6.3,77.4,6.3L77.4,6.3z"/>
	<path class="st1" d="M533.8,33.7L533.8,33.7c-3.9,0-7,3.2-7,7v2.8c-4.4-5.9-13.4-9.9-21.7-9.9c-18.4,0-33.3,14.9-33.3,33.3
		c0,18.4,14.9,33.3,33.3,33.3c8.3,0,17.1-3.8,21.7-9.9v2.8c0,3.9,3.2,7,7,7h0c3.9,0,7-3.2,7-7V40.7
		C540.8,36.8,537.7,33.7,533.8,33.7z M505.6,87.8c-11.7,0-21.2-9.3-21.2-20.7s9.5-20.7,21.2-20.7c11.7,0,21.2,9.3,21.2,20.7
		S517.3,87.8,505.6,87.8z"/>
	<path class="st1" d="M188.9,59v34.3c0,4.2-3,7-6.9,7c-3.9,0-6.9-3-6.9-7V60.9c0-9.1-5.1-14.8-13.2-14.8c-8.1,0-14,6-14,14.2v33
		c0,4.2-3,7-6.8,7c-4,0-6.9-3-6.9-7V60.9c0-9-5.3-14.8-13.4-14.8c-8.3,0-14,6-14,14.8v32.3c0,4.2-2.9,7-6.8,7c-3.9,0-6.9-3-6.9-7
		V40.7c0-4,2.9-7,6.9-7c3.6,0,6.5,2.9,6.6,6.6c4.4-4.2,10.5-6.6,17.7-6.6c8.7,0,15.5,3.5,19.4,10c4.8-6.2,12.6-10,21.6-10
		C179.8,33.7,188.9,43.4,188.9,59z"/>
	<path class="st1" d="M315.9,40.7c0,3.8-2.7,6.4-6.6,6.6c-10.4,0.3-17.5,7.3-17.5,17.5v28.4c0,4.2-2.9,7-6.8,7c-3.9,0-6.9-3-6.9-7
		V40.7c0-4,2.9-7,6.9-7c3.8,0,6.6,3,6.6,7v1.9c4.3-5.1,10.6-8.2,17.8-8.2C313.2,34.4,315.9,37,315.9,40.7z"/>
	<path class="st1" d="M390.5,40.7v51.6c0,19.6-12.1,31.4-31.9,31.4c-10.4,0-20.3-3.4-27.7-9.5c-1.7-1.4-2.6-3.1-2.6-4.9
		c0-3.5,2.7-6.2,6.2-6.2c1.4,0,2.7,0.4,3.9,1.3c6.5,4.8,12.5,6.9,19.4,6.9c12.1,0,19.1-6.6,19.1-18.2v-4.5
		c-4.8,5.7-12.3,9.1-21.6,9.1c-17.9,0-31-13.4-31-31.9s13.1-31.9,31-31.9c9.4,0,17,3.5,21.7,9.5v-2.5c0-4,3-7,6.9-7
		C387.7,33.7,390.5,36.7,390.5,40.7z M377,65.5c0-11.8-7.5-19.6-19.2-19.6c-11.3,0-19.5,8.2-19.5,19.7c0,11.7,8.2,20,19.5,20
		C369.4,85.6,377,77.6,377,65.5z"/>
	<path class="st1" d="M467.6,40.3c0,1-0.1,2.1-0.6,3.1L430.4,120c-1.1,2.2-3.3,3.7-5.8,3.7l0,0c-4.7,0-7.9-4.9-5.8-9.2l8.7-18.6
		l-23.6-52.3c-0.4-1-0.8-1.9-0.8-3.2c0-3.5,3.1-6.6,6.8-6.6c2.7,0,5.2,1.6,6.2,4l19.1,42.9l19.6-42.9c1-2.3,3.5-4,6.2-4
		C464.6,33.7,467.6,36.8,467.6,40.3z"/>
	<path class="st1" d="M70.3,66.5c4.7-1.1,6.9-4.5,5.9-9.1l-0.1-0.6c-3.4-14.6-15.4-23.6-29.4-23c-2,0.1-4,0.4-6.1,0.8
		c-7.7,1.8-14,5.9-18.4,11.5c-4.4,5.6-6.9,12.7-7,20.6c0,2.6,0.3,5.2,0.9,7.9c1.7,7.5,5.5,13.6,10.7,18c0.2,0.1,0.3,0.3,0.5,0.4
		c0,0,0,0,0.1,0c5,3.9,11.2,6.5,18.2,7.1c0.4,0,0.8,0.1,1.2,0.1c0.9,0.1,1.8,0.1,2.7,0.1c7.9,0,15.1-2.3,21.2-6.9
		c1.3-1,2.2-1.9,2.7-2.8c0.5-0.9,0.7-1.8,0.7-2.9c0-3.2-2.5-5.7-5.7-5.7c-1.2,0-2.3,0.5-3.5,1.3c-4.3,3.2-9.5,4.9-14.9,4.9
		c-1.1,0-2.1-0.1-3.1-0.2c-8-0.9-13.8-5.4-16.4-12.2L70.3,66.5z M39.9,46.9c2.1-1,4.4-1.5,6.8-1.6c0.3,0,0.6,0,0.9,0
		c8.3,0,14.2,4.7,15.9,11.9l-35,8.1C28.4,56.8,32.7,49.8,39.9,46.9z"/>
	<path class="st1" d="M257.4,66.5c4.7-1.1,6.9-4.5,5.9-9.1l-0.1-0.6c-3.4-14.6-15.4-23.6-29.4-23c-2,0.1-4,0.4-6.1,0.8
		c-7.7,1.8-14,5.9-18.4,11.5c-4.4,5.6-6.9,12.7-7,20.6c0,2.6,0.3,5.2,0.9,7.9c1.7,7.5,5.5,13.6,10.7,18c0.2,0.1,0.3,0.3,0.5,0.4
		c0,0,0,0,0.1,0c5,3.9,11.2,6.5,18.2,7.1c0.4,0,0.8,0.1,1.2,0.1c0.9,0.1,1.8,0.1,2.7,0.1c7.9,0,15.1-2.3,21.2-6.9
		c1.3-1,2.2-1.9,2.7-2.8c0.5-0.9,0.7-1.8,0.7-2.9c0-3.2-2.5-5.7-5.7-5.7c-1.2,0-2.3,0.5-3.5,1.3c-4.3,3.2-9.5,4.9-14.9,4.9
		c-1.1,0-2.1-0.1-3.1-0.2c-8-0.9-13.8-5.4-16.4-12.2L257.4,66.5z M226.9,46.9c2.1-1,4.4-1.5,6.8-1.6c0.3,0,0.6,0,0.9,0
		c8.3,0,14.2,4.7,15.9,11.9l-35,8.1C215.4,56.8,219.7,49.8,226.9,46.9z"/>
</g>
</svg>
